<svg id="visual" viewBox="0 0 900 600" width="900" height="600" xmlns="http://www.w3.org/2000/svg" xmlns:xlink="http://www.w3.org/1999/xlink" version="1.1"><rect x="0" y="0" width="900" height="600" fill="#fff"></rect><path d="M0 155L39 155L39 78L78 78L78 131L117 131L117 188L157 188L157 184L196 184L196 81L235 81L235 74L274 74L274 66L313 66L313 107L352 107L352 187L391 187L391 53L430 53L430 101L470 101L470 150L509 150L509 170L548 170L548 88L587 88L587 164L626 164L626 109L665 109L665 168L704 168L704 166L743 166L743 60L783 60L783 228L822 228L822 183L861 183L861 117L900 117L900 215L900 0L900 0L861 0L861 0L822 0L822 0L783 0L783 0L743 0L743 0L704 0L704 0L665 0L665 0L626 0L626 0L587 0L587 0L548 0L548 0L509 0L509 0L470 0L470 0L430 0L430 0L391 0L391 0L352 0L352 0L313 0L313 0L274 0L274 0L235 0L235 0L196 0L196 0L157 0L157 0L117 0L117 0L78 0L78 0L39 0L39 0L0 0Z" fill="#9900ff"></path><path d="M0 95L39 95L39 73L78 73L78 143L117 143L117 155L157 155L157 70L196 70L196 200L235 200L235 135L274 135L274 184L313 184L313 110L352 110L352 143L391 143L391 146L430 146L430 111L470 111L470 167L509 167L509 147L548 147L548 207L587 207L587 98L626 98L626 128L665 128L665 48L704 48L704 87L743 87L743 189L783 189L783 187L822 187L822 85L861 85L861 67L900 67L900 66L900 0L900 0L861 0L861 0L822 0L822 0L783 0L783 0L743 0L743 0L704 0L704 0L665 0L665 0L626 0L626 0L587 0L587 0L548 0L548 0L509 0L509 0L470 0L470 0L430 0L430 0L391 0L391 0L352 0L352 0L313 0L313 0L274 0L274 0L235 0L235 0L196 0L196 0L157 0L157 0L117 0L117 0L78 0L78 0L39 0L39 0L0 0Z" fill="#9300f4"></path><path d="M0 63L39 63L39 71L78 71L78 153L117 153L117 89L157 89L157 168L196 168L196 51L235 51L235 132L274 132L274 190L313 190L313 91L352 91L352 45L391 45L391 123L430 123L430 99L470 99L470 70L509 70L509 109L548 109L548 184L587 184L587 114L626 114L626 148L665 148L665 140L704 140L704 48L743 48L743 76L783 76L783 65L822 65L822 152L861 152L861 109L900 109L900 130L900 0L900 0L861 0L861 0L822 0L822 0L783 0L783 0L743 0L743 0L704 0L704 0L665 0L665 0L626 0L626 0L587 0L587 0L548 0L548 0L509 0L509 0L470 0L470 0L430 0L430 0L391 0L391 0L352 0L352 0L313 0L313 0L274 0L274 0L235 0L235 0L196 0L196 0L157 0L157 0L117 0L117 0L78 0L78 0L39 0L39 0L0 0Z" fill="#8d00ea"></path><path d="M0 139L39 139L39 55L78 55L78 64L117 64L117 76L157 76L157 172L196 172L196 135L235 135L235 80L274 80L274 60L313 60L313 168L352 168L352 128L391 128L391 97L430 97L430 64L470 64L470 125L509 125L509 157L548 157L548 39L587 39L587 45L626 45L626 86L665 86L665 148L704 148L704 71L743 71L743 172L783 172L783 102L822 102L822 136L861 136L861 85L900 85L900 43L900 0L900 0L861 0L861 0L822 0L822 0L783 0L783 0L743 0L743 0L704 0L704 0L665 0L665 0L626 0L626 0L587 0L587 0L548 0L548 0L509 0L509 0L470 0L470 0L430 0L430 0L391 0L391 0L352 0L352 0L313 0L313 0L274 0L274 0L235 0L235 0L196 0L196 0L157 0L157 0L117 0L117 0L78 0L78 0L39 0L39 0L0 0Z" fill="#8600e0"></path><path d="M0 149L39 149L39 144L78 144L78 70L117 70L117 62L157 62L157 54L196 54L196 107L235 107L235 134L274 134L274 77L313 77L313 44L352 44L352 148L391 148L391 37L430 37L430 93L470 93L470 37L509 37L509 63L548 63L548 104L587 104L587 67L626 67L626 59L665 59L665 124L704 124L704 120L743 120L743 103L783 103L783 73L822 73L822 66L861 66L861 125L900 125L900 59L900 0L900 0L861 0L861 0L822 0L822 0L783 0L783 0L743 0L743 0L704 0L704 0L665 0L665 0L626 0L626 0L587 0L587 0L548 0L548 0L509 0L509 0L470 0L470 0L430 0L430 0L391 0L391 0L352 0L352 0L313 0L313 0L274 0L274 0L235 0L235 0L196 0L196 0L157 0L157 0L117 0L117 0L78 0L78 0L39 0L39 0L0 0Z" fill="#8000d5"></path><path d="M0 50L39 50L39 88L78 88L78 44L117 44L117 127L157 127L157 88L196 88L196 47L235 47L235 139L274 139L274 47L313 47L313 111L352 111L352 130L391 130L391 132L430 132L430 45L470 45L470 72L509 72L509 133L548 133L548 89L587 89L587 58L626 58L626 85L665 85L665 55L704 55L704 56L743 56L743 62L783 62L783 40L822 40L822 135L861 135L861 51L900 51L900 83L900 0L900 0L861 0L861 0L822 0L822 0L783 0L783 0L743 0L743 0L704 0L704 0L665 0L665 0L626 0L626 0L587 0L587 0L548 0L548 0L509 0L509 0L470 0L470 0L430 0L430 0L391 0L391 0L352 0L352 0L313 0L313 0L274 0L274 0L235 0L235 0L196 0L196 0L157 0L157 0L117 0L117 0L78 0L78 0L39 0L39 0L0 0Z" fill="#7a00cb"></path><path d="M0 75L39 75L39 42L78 42L78 29L117 29L117 110L157 110L157 84L196 84L196 65L235 65L235 68L274 68L274 98L313 98L313 24L352 24L352 65L391 65L391 68L430 68L430 62L470 62L470 86L509 86L509 77L548 77L548 104L587 104L587 40L626 40L626 78L665 78L665 52L704 52L704 58L743 58L743 72L783 72L783 47L822 47L822 53L861 53L861 67L900 67L900 38L900 0L900 0L861 0L861 0L822 0L822 0L783 0L783 0L743 0L743 0L704 0L704 0L665 0L665 0L626 0L626 0L587 0L587 0L548 0L548 0L509 0L509 0L470 0L470 0L430 0L430 0L391 0L391 0L352 0L352 0L313 0L313 0L274 0L274 0L235 0L235 0L196 0L196 0L157 0L157 0L117 0L117 0L78 0L78 0L39 0L39 0L0 0Z" fill="#7400c1"></path><path d="M0 27L39 27L39 34L78 34L78 89L117 89L117 59L157 59L157 46L196 46L196 86L235 86L235 96L274 96L274 44L313 44L313 89L352 89L352 37L391 37L391 25L430 25L430 62L470 62L470 34L509 34L509 40L548 40L548 33L587 33L587 38L626 38L626 58L665 58L665 92L704 92L704 54L743 54L743 39L783 39L783 100L822 100L822 69L861 69L861 58L900 58L900 73L900 0L900 0L861 0L861 0L822 0L822 0L783 0L783 0L743 0L743 0L704 0L704 0L665 0L665 0L626 0L626 0L587 0L587 0L548 0L548 0L509 0L509 0L470 0L470 0L430 0L430 0L391 0L391 0L352 0L352 0L313 0L313 0L274 0L274 0L235 0L235 0L196 0L196 0L157 0L157 0L117 0L117 0L78 0L78 0L39 0L39 0L0 0Z" fill="#6e00b7"></path><path d="M0 80L39 80L39 72L78 72L78 39L117 39L117 66L157 66L157 14L196 14L196 81L235 81L235 26L274 26L274 86L313 86L313 61L352 61L352 17L391 17L391 48L430 48L430 65L470 65L470 22L509 22L509 69L548 69L548 31L587 31L587 22L626 22L626 82L665 82L665 52L704 52L704 45L743 45L743 79L783 79L783 65L822 65L822 29L861 29L861 24L900 24L900 72L900 0L900 0L861 0L861 0L822 0L822 0L783 0L783 0L743 0L743 0L704 0L704 0L665 0L665 0L626 0L626 0L587 0L587 0L548 0L548 0L509 0L509 0L470 0L470 0L430 0L430 0L391 0L391 0L352 0L352 0L313 0L313 0L274 0L274 0L235 0L235 0L196 0L196 0L157 0L157 0L117 0L117 0L78 0L78 0L39 0L39 0L0 0Z" fill="#6800ad"></path><path d="M0 28L39 28L39 69L78 69L78 15L117 15L117 48L157 48L157 54L196 54L196 69L235 69L235 58L274 58L274 19L313 19L313 44L352 44L352 47L391 47L391 66L430 66L430 69L470 69L470 18L509 18L509 31L548 31L548 22L587 22L587 12L626 12L626 49L665 49L665 59L704 59L704 23L743 23L743 69L783 69L783 39L822 39L822 37L861 37L861 64L900 64L900 28L900 0L900 0L861 0L861 0L822 0L822 0L783 0L783 0L743 0L743 0L704 0L704 0L665 0L665 0L626 0L626 0L587 0L587 0L548 0L548 0L509 0L509 0L470 0L470 0L430 0L430 0L391 0L391 0L352 0L352 0L313 0L313 0L274 0L274 0L235 0L235 0L196 0L196 0L157 0L157 0L117 0L117 0L78 0L78 0L39 0L39 0L0 0Z" fill="#6200a3"></path><path d="M0 28L39 28L39 32L78 32L78 47L117 47L117 36L157 36L157 37L196 37L196 9L235 9L235 30L274 30L274 15L313 15L313 9L352 9L352 31L391 31L391 25L430 25L430 34L470 34L470 33L509 33L509 9L548 9L548 25L587 25L587 50L626 50L626 12L665 12L665 51L704 51L704 12L743 12L743 28L783 28L783 17L822 17L822 21L861 21L861 39L900 39L900 16L900 0L900 0L861 0L861 0L822 0L822 0L783 0L783 0L743 0L743 0L704 0L704 0L665 0L665 0L626 0L626 0L587 0L587 0L548 0L548 0L509 0L509 0L470 0L470 0L430 0L430 0L391 0L391 0L352 0L352 0L313 0L313 0L274 0L274 0L235 0L235 0L196 0L196 0L157 0L157 0L117 0L117 0L78 0L78 0L39 0L39 0L0 0Z" fill="#5c009a"></path><path d="M0 13L39 13L39 6L78 6L78 31L117 31L117 26L157 26L157 33L196 33L196 18L235 18L235 18L274 18L274 31L313 31L313 17L352 17L352 8L391 8L391 18L430 18L430 30L470 30L470 6L509 6L509 9L548 9L548 8L587 8L587 15L626 15L626 24L665 24L665 12L704 12L704 21L743 21L743 14L783 14L783 23L822 23L822 26L861 26L861 33L900 33L900 19L900 0L900 0L861 0L861 0L822 0L822 0L783 0L783 0L743 0L743 0L704 0L704 0L665 0L665 0L626 0L626 0L587 0L587 0L548 0L548 0L509 0L509 0L470 0L470 0L430 0L430 0L391 0L391 0L352 0L352 0L313 0L313 0L274 0L274 0L235 0L235 0L196 0L196 0L157 0L157 0L117 0L117 0L78 0L78 0L39 0L39 0L0 0Z" fill="#560090"></path></svg>