<svg id="visual" viewBox="0 0 900 600" width="900" height="600" xmlns="http://www.w3.org/2000/svg" xmlns:xlink="http://www.w3.org/1999/xlink" version="1.1"><rect x="0" y="0" width="900" height="600" fill="#231F63"></rect><path d="M0 185L50 185L50 163L100 163L100 234L150 234L150 160L200 160L200 182L250 182L250 214L300 214L300 157L350 157L350 175L400 175L400 199L450 199L450 183L500 183L500 225L550 225L550 172L600 172L600 227L650 227L650 184L700 184L700 155L750 155L750 171L800 171L800 226L850 226L850 187L900 187L900 215L900 0L900 0L850 0L850 0L800 0L800 0L750 0L750 0L700 0L700 0L650 0L650 0L600 0L600 0L550 0L550 0L500 0L500 0L450 0L450 0L400 0L400 0L350 0L350 0L300 0L300 0L250 0L250 0L200 0L200 0L150 0L150 0L100 0L100 0L50 0L50 0L0 0Z" fill="#93272d"></path><path d="M0 179L50 179L50 161L100 161L100 169L150 169L150 166L200 166L200 155L250 155L250 135L300 135L300 177L350 177L350 191L400 191L400 133L450 133L450 179L500 179L500 154L550 154L550 142L600 142L600 176L650 176L650 196L700 196L700 142L750 142L750 199L800 199L800 157L850 157L850 205L900 205L900 133L900 0L900 0L850 0L850 0L800 0L800 0L750 0L750 0L700 0L700 0L650 0L650 0L600 0L600 0L550 0L550 0L500 0L500 0L450 0L450 0L400 0L400 0L350 0L350 0L300 0L300 0L250 0L250 0L200 0L200 0L150 0L150 0L100 0L100 0L50 0L50 0L0 0Z" fill="#8d1a38"></path><path d="M0 112L50 112L50 121L100 121L100 147L150 147L150 123L200 123L200 122L250 122L250 140L300 140L300 163L350 163L350 127L400 127L400 133L450 133L450 179L500 179L500 145L550 145L550 117L600 117L600 129L650 129L650 130L700 130L700 134L750 134L750 162L800 162L800 163L850 163L850 117L900 117L900 129L900 0L900 0L850 0L850 0L800 0L800 0L750 0L750 0L700 0L700 0L650 0L650 0L600 0L600 0L550 0L550 0L500 0L500 0L450 0L450 0L400 0L400 0L350 0L350 0L300 0L300 0L250 0L250 0L200 0L200 0L150 0L150 0L100 0L100 0L50 0L50 0L0 0Z" fill="#851042"></path><path d="M0 128L50 128L50 153L100 153L100 121L150 121L150 131L200 131L200 116L250 116L250 90L300 90L300 116L350 116L350 147L400 147L400 103L450 103L450 117L500 117L500 107L550 107L550 138L600 138L600 124L650 124L650 95L700 95L700 144L750 144L750 98L800 98L800 150L850 150L850 97L900 97L900 102L900 0L900 0L850 0L850 0L800 0L800 0L750 0L750 0L700 0L700 0L650 0L650 0L600 0L600 0L550 0L550 0L500 0L500 0L450 0L450 0L400 0L400 0L350 0L350 0L300 0L300 0L250 0L250 0L200 0L200 0L150 0L150 0L100 0L100 0L50 0L50 0L0 0Z" fill="#790c4c"></path><path d="M0 94L50 94L50 83L100 83L100 84L150 84L150 93L200 93L200 109L250 109L250 105L300 105L300 124L350 124L350 125L400 125L400 105L450 105L450 69L500 69L500 92L550 92L550 92L600 92L600 70L650 70L650 79L700 79L700 93L750 93L750 118L800 118L800 126L850 126L850 118L900 118L900 96L900 0L900 0L850 0L850 0L800 0L800 0L750 0L750 0L700 0L700 0L650 0L650 0L600 0L600 0L550 0L550 0L500 0L500 0L450 0L450 0L400 0L400 0L350 0L350 0L300 0L300 0L250 0L250 0L200 0L200 0L150 0L150 0L100 0L100 0L50 0L50 0L0 0Z" fill="#6a0f54"></path><path d="M0 68L50 68L50 81L100 81L100 81L150 81L150 69L200 69L200 55L250 55L250 91L300 91L300 98L350 98L350 80L400 80L400 97L450 97L450 83L500 83L500 95L550 95L550 56L600 56L600 45L650 45L650 59L700 59L700 51L750 51L750 48L800 48L800 56L850 56L850 98L900 98L900 66L900 0L900 0L850 0L850 0L800 0L800 0L750 0L750 0L700 0L700 0L650 0L650 0L600 0L600 0L550 0L550 0L500 0L500 0L450 0L450 0L400 0L400 0L350 0L350 0L300 0L300 0L250 0L250 0L200 0L200 0L150 0L150 0L100 0L100 0L50 0L50 0L0 0Z" fill="#58155b"></path><path d="M0 71L50 71L50 28L100 28L100 32L150 32L150 46L200 46L200 51L250 51L250 76L300 76L300 63L350 63L350 70L400 70L400 40L450 40L450 42L500 42L500 55L550 55L550 34L600 34L600 66L650 66L650 51L700 51L700 58L750 58L750 42L800 42L800 27L850 27L850 33L900 33L900 36L900 0L900 0L850 0L850 0L800 0L800 0L750 0L750 0L700 0L700 0L650 0L650 0L600 0L600 0L550 0L550 0L500 0L500 0L450 0L450 0L400 0L400 0L350 0L350 0L300 0L300 0L250 0L250 0L200 0L200 0L150 0L150 0L100 0L100 0L50 0L50 0L0 0Z" fill="#421b60"></path><path d="M0 25L50 25L50 29L100 29L100 20L150 20L150 5L200 5L200 33L250 33L250 13L300 13L300 6L350 6L350 39L400 39L400 26L450 26L450 18L500 18L500 26L550 26L550 17L600 17L600 30L650 30L650 9L700 9L700 26L750 26L750 27L800 27L800 35L850 35L850 25L900 25L900 24L900 0L900 0L850 0L850 0L800 0L800 0L750 0L750 0L700 0L700 0L650 0L650 0L600 0L600 0L550 0L550 0L500 0L500 0L450 0L450 0L400 0L400 0L350 0L350 0L300 0L300 0L250 0L250 0L200 0L200 0L150 0L150 0L100 0L100 0L50 0L50 0L0 0Z" fill="#241f63"></path></svg>