<svg id="visual" viewBox="0 0 900 600" width="900" height="600" xmlns="http://www.w3.org/2000/svg" xmlns:xlink="http://www.w3.org/1999/xlink" version="1.1"><rect x="0" y="0" width="900" height="600" fill="#171717"></rect><defs><linearGradient id="grad1_0" x1="33.3%" y1="0%" x2="100%" y2="100%"><stop offset="20%" stop-color="#0c6473" stop-opacity="1"></stop><stop offset="80%" stop-color="#0c6473" stop-opacity="1"></stop></linearGradient></defs><defs><linearGradient id="grad1_1" x1="33.3%" y1="0%" x2="100%" y2="100%"><stop offset="20%" stop-color="#0c6473" stop-opacity="1"></stop><stop offset="80%" stop-color="#171717" stop-opacity="1"></stop></linearGradient></defs><defs><linearGradient id="grad2_0" x1="0%" y1="0%" x2="66.7%" y2="100%"><stop offset="20%" stop-color="#0c6473" stop-opacity="1"></stop><stop offset="80%" stop-color="#0c6473" stop-opacity="1"></stop></linearGradient></defs><defs><linearGradient id="grad2_1" x1="0%" y1="0%" x2="66.7%" y2="100%"><stop offset="20%" stop-color="#171717" stop-opacity="1"></stop><stop offset="80%" stop-color="#0c6473" stop-opacity="1"></stop></linearGradient></defs><g transform="translate(900, 0)"><path d="M0 297.5C-30.5 293 -61 288.5 -89.9 276.8C-118.9 265.1 -146.3 246.2 -160.5 220.9C-174.6 195.6 -175.4 163.8 -197.4 143.4C-219.4 123 -262.7 113.9 -282.9 91.9C-303.1 69.9 -300.3 35 -297.5 0L0 0Z" fill="#1d3c42"></path><path d="M0 148.7C-15.2 146.5 -30.5 144.2 -45 138.4C-59.4 132.5 -73.2 123.1 -80.2 110.4C-87.3 97.8 -87.7 81.9 -98.7 71.7C-109.7 61.5 -131.3 57 -141.4 46C-151.6 35 -150.1 17.5 -148.7 0L0 0Z" fill="#0c6473"></path></g><g transform="translate(0, 600)"><path d="M0 -297.5C33.5 -298 67 -298.6 91.9 -282.9C116.8 -267.2 133.2 -235.3 156.4 -215.2C179.5 -195.1 209.5 -187 231.4 -168.1C253.3 -149.3 267.1 -119.7 276.8 -89.9C286.4 -60.1 291.9 -30.1 297.5 0L0 0Z" fill="#1d3c42"></path><path d="M0 -148.7C16.7 -149 33.5 -149.3 46 -141.4C58.4 -133.6 66.6 -117.6 78.2 -107.6C89.8 -97.6 104.7 -93.5 115.7 -84.1C126.6 -74.6 133.5 -59.9 138.4 -45C143.2 -30.1 146 -15 148.7 0L0 0Z" fill="#0c6473"></path></g></svg>