<svg id="visual" viewBox="0 0 900 600" width="900" height="600" xmlns="http://www.w3.org/2000/svg" xmlns:xlink="http://www.w3.org/1999/xlink" version="1.1"><rect x="0" y="0" width="900" height="600" fill="#171717"></rect><defs><linearGradient id="grad1_0" x1="33.3%" y1="100%" x2="100%" y2="0%"><stop offset="20%" stop-color="#8ce3f3" stop-opacity="1"></stop><stop offset="80%" stop-color="#8ce3f3" stop-opacity="1"></stop></linearGradient></defs><defs><linearGradient id="grad1_1" x1="33.3%" y1="100%" x2="100%" y2="0%"><stop offset="20%" stop-color="#8ce3f3" stop-opacity="1"></stop><stop offset="80%" stop-color="#171717" stop-opacity="1"></stop></linearGradient></defs><defs><linearGradient id="grad2_0" x1="0%" y1="100%" x2="66.7%" y2="0%"><stop offset="20%" stop-color="#8ce3f3" stop-opacity="1"></stop><stop offset="80%" stop-color="#8ce3f3" stop-opacity="1"></stop></linearGradient></defs><defs><linearGradient id="grad2_1" x1="0%" y1="100%" x2="66.7%" y2="0%"><stop offset="20%" stop-color="#171717" stop-opacity="1"></stop><stop offset="80%" stop-color="#8ce3f3" stop-opacity="1"></stop></linearGradient></defs><g transform="translate(900, 600)"><path d="M-297.5 0C-293 -30.5 -288.5 -61 -276.8 -89.9C-265.1 -118.9 -246.2 -146.3 -220.9 -160.5C-195.6 -174.6 -163.8 -175.4 -143.4 -197.4C-123 -219.4 -113.9 -262.7 -91.9 -282.9C-69.9 -303.1 -35 -300.3 0 -297.5L0 0Z" fill="#50747b"></path><path d="M-148.7 0C-146.5 -15.2 -144.2 -30.5 -138.4 -45C-132.5 -59.4 -123.1 -73.2 -110.4 -80.2C-97.8 -87.3 -81.9 -87.7 -71.7 -98.7C-61.5 -109.7 -57 -131.3 -46 -141.4C-35 -151.6 -17.5 -150.1 0 -148.7L0 0Z" fill="#8ce3f3"></path></g><g transform="translate(0, 0)"><path d="M297.5 0C298 33.5 298.6 67 282.9 91.9C267.2 116.8 235.3 133.2 215.2 156.4C195.1 179.5 187 209.5 168.1 231.4C149.3 253.3 119.7 267.1 89.9 276.8C60.1 286.4 30.1 291.9 0 297.5L0 0Z" fill="#50747b"></path><path d="M148.7 0C149 16.7 149.3 33.5 141.4 46C133.6 58.4 117.6 66.6 107.6 78.2C97.6 89.8 93.5 104.7 84.1 115.7C74.6 126.6 59.9 133.5 45 138.4C30.1 143.2 15 146 0 148.7L0 0Z" fill="#8ce3f3"></path></g></svg>