<svg id="visual" viewBox="0 0 900 600" width="900" height="600" xmlns="http://www.w3.org/2000/svg" xmlns:xlink="http://www.w3.org/1999/xlink" version="1.1"><rect x="0" y="0" width="900" height="600" fill="#e8e8e8"></rect><defs><linearGradient id="grad1_0" x1="33.3%" y1="100%" x2="100%" y2="0%"><stop offset="20%" stop-color="#0c6473" stop-opacity="1"></stop><stop offset="80%" stop-color="#0c6473" stop-opacity="1"></stop></linearGradient></defs><defs><linearGradient id="grad1_1" x1="33.3%" y1="100%" x2="100%" y2="0%"><stop offset="20%" stop-color="#0c6473" stop-opacity="1"></stop><stop offset="80%" stop-color="#e8e8e8" stop-opacity="1"></stop></linearGradient></defs><defs><linearGradient id="grad2_0" x1="0%" y1="100%" x2="66.7%" y2="0%"><stop offset="20%" stop-color="#0c6473" stop-opacity="1"></stop><stop offset="80%" stop-color="#0c6473" stop-opacity="1"></stop></linearGradient></defs><defs><linearGradient id="grad2_1" x1="0%" y1="100%" x2="66.7%" y2="0%"><stop offset="20%" stop-color="#e8e8e8" stop-opacity="1"></stop><stop offset="80%" stop-color="#0c6473" stop-opacity="1"></stop></linearGradient></defs><g transform="translate(900, 600)"><path d="M-297.5 0C-294.6 -30.8 -291.8 -61.7 -282.9 -91.9C-274 -122.2 -259.1 -151.8 -237 -172.2C-215 -192.6 -185.7 -203.8 -161.1 -221.7C-136.4 -239.5 -116.3 -264 -90.2 -277.7C-64.2 -291.4 -32.1 -294.5 0 -297.5L0 0Z" fill="#84a4ac"></path><path d="M-148.7 0C-147.3 -15.4 -145.9 -30.8 -141.4 -46C-137 -61.1 -129.6 -75.9 -118.5 -86.1C-107.5 -96.3 -92.9 -101.9 -80.5 -110.8C-68.2 -119.8 -58.2 -132 -45.1 -138.9C-32.1 -145.7 -16 -147.2 0 -148.7L0 0Z" fill="#0c6473"></path></g><g transform="translate(0, 0)"><path d="M297.5 0C285.3 28.1 273.1 56.3 262.5 85.3C251.9 114.3 243 144.1 223.3 162.2C203.6 180.3 173 186.6 151.1 207.9C129.1 229.2 115.7 265.5 91.9 282.9C68.2 300.3 34.1 298.9 0 297.5L0 0Z" fill="#84a4ac"></path><path d="M148.7 0C142.6 14.1 136.5 28.1 131.2 42.6C126 57.1 121.5 72.1 111.6 81.1C101.8 90.2 86.5 93.3 75.5 104C64.5 114.6 57.8 132.7 46 141.4C34.1 150.2 17 149.4 0 148.7L0 0Z" fill="#0c6473"></path></g></svg>